<svg xmlns="http://www.w3.org/2000/svg" xmlns:xlink="http://www.w3.org/1999/xlink" width="313.907" height="394.923" viewBox="0 0 313.907 394.923">
  <defs>
    <linearGradient id="linear-gradient" x1="0.5" x2="0.5" y2="1" gradientUnits="objectBoundingBox">
      <stop offset="0" stop-color="#5bd6fd"/>
      <stop offset="1" stop-color="#5bd6fd"/>
    </linearGradient>
    <filter id="Rectangle_1" x="0" y="0" width="313.907" height="313.907" filterUnits="userSpaceOnUse">
      <feOffset dy="3" input="SourceAlpha"/>
      <feGaussianBlur stdDeviation="15" result="blur"/>
      <feFlood flood-opacity="0.161"/>
      <feComposite operator="in" in2="blur"/>
      <feComposite in="SourceGraphic"/>
    </filter>
    <linearGradient id="linear-gradient-2" x1="0.5" x2="0.5" y2="1" gradientUnits="objectBoundingBox">
      <stop offset="0" stop-color="#0f58ee"/>
      <stop offset="1" stop-color="#4ca7f6"/>
    </linearGradient>
    <filter id="Path_3" x="12.83" y="12.831" width="288.311" height="288.647" filterUnits="userSpaceOnUse">
      <feOffset dy="3" input="SourceAlpha"/>
      <feGaussianBlur stdDeviation="15" result="blur-2"/>
      <feFlood flood-opacity="0.161"/>
      <feComposite operator="in" in2="blur-2"/>
      <feComposite in="SourceGraphic"/>
    </filter>
  </defs>
  <g id="Group_429" data-name="Group 429" transform="translate(-30.154 -252.154)">
    <g id="Group_168" data-name="Group 168" transform="translate(271.471 518.061) rotate(-172)">
      <g transform="matrix(-0.99, 0.14, -0.14, -0.99, 275.98, 229.73)" filter="url(#Rectangle_1)">
        <rect id="Rectangle_1-2" data-name="Rectangle 1" width="198.246" height="198.246" rx="22" transform="translate(241.32 265.91) rotate(-172)" fill="url(#linear-gradient)"/>
      </g>
    </g>
    <g id="Group_169" data-name="Group 169" transform="translate(286.295 505.631) rotate(180)" opacity="0.9">
      <g transform="matrix(-1, 0, 0, -1, 256.14, 253.48)" filter="url(#Path_3)">
        <path id="Path_3-2" data-name="Path 3" d="M51.18,0,185.955.4a12.355,12.355,0,0,1,12.355,12.355V186.292a12.355,12.355,0,0,1-12.355,12.355H12.42A12.355,12.355,0,0,1,.065,186.292L0,44.884Z" transform="translate(256.14 253.48) rotate(180)" fill="url(#linear-gradient-2)"/>
      </g>
    </g>
    <rect id="Rectangle_293" data-name="Rectangle 293" width="14.867" height="117.974" rx="7.433" transform="translate(183.475 464.832) rotate(180)" fill="#fff"/>
    <rect id="Rectangle_294" data-name="Rectangle 294" width="14.867" height="71.935" rx="7.433" transform="translate(161.415 441.812) rotate(180)" fill="#fff"/>
    <rect id="Rectangle_295" data-name="Rectangle 295" width="14.867" height="52.273" rx="7.433" transform="translate(139.355 432.221) rotate(180)" fill="#fff"/>
    <rect id="Rectangle_297" data-name="Rectangle 297" width="14.867" height="76.731" rx="7.433" transform="translate(227.596 444.21) rotate(180)" fill="#fff"/>
    <rect id="Rectangle_298" data-name="Rectangle 298" width="14.867" height="41.243" rx="7.433" transform="translate(205.289 426.466) rotate(180)" fill="#fff"/>
    <rect id="Rectangle_296" data-name="Rectangle 296" width="14.867" height="41.243" rx="7.433" transform="translate(249.655 426.466) rotate(180)" fill="#fff"/>
    <path id="Path_168" data-name="Path 168" d="M8.28-.7H51.668L0,44.229V8.118C0,3.466,3.627-.7,8.28-.7Z" transform="translate(234.563 461.731)" fill="#fff"/>
    <g id="note" transform="translate(-488.919 262.78)">
      <text id="sharpno_" data-name="sharpno " transform="translate(769.919 332.029)" fill="#fff" font-size="60" font-family="Asap-Bold, Asap" font-weight="700" letter-spacing="-0.015em"><tspan x="-223.38" y="0">sharp</tspan><tspan y="0" fill="#57ccf2">no </tspan></text>
    </g>
    <g id="note-2" data-name="note" transform="translate(-258.785 331.78)">
      <text id="t" transform="translate(546.888 263.029)" fill="#57ccf2" stroke="#1d1a30" stroke-miterlimit="10" stroke-width="0.5" font-size="70" font-family="Asap-Bold, Asap" font-weight="700" letter-spacing="-0.015em"><tspan x="-23.94" y="0">t</tspan></text>
    </g>
    <g id="note-3" data-name="note" transform="translate(-228.785 319.78)">
      <text id="e" transform="translate(514.888 218.947)" fill="#57ccf2" font-size="60" font-family="Asap-Bold, Asap" font-weight="700" letter-spacing="-0.015em"><tspan x="-0.34" y="56">e</tspan></text>
    </g>
  </g>
</svg>
